<svg version="1.1" id="Layer_1" xmlns="http://www.w3.org/2000/svg" xmlns:xlink="http://www.w3.org/1999/xlink" x="0px" y="0px"
	 width="100%" viewBox="0 0 496 496" enable-background="new 0 0 496 496" xml:space="preserve">
<path fill="#000000" opacity="1.000000" stroke="none" 
	d="
M260.360901,299.966797 
	C260.784393,302.154602 262.115082,302.668335 263.741302,302.669373 
	C279.373444,302.679443 295.005585,302.675385 311.708221,302.675385 
	C307.700531,290.585480 303.926758,279.201324 300.015289,267.401794 
	C305.000793,266.081268 309.459991,266.650452 313.851532,266.811615 
	C316.686829,266.915619 316.757385,269.689880 317.445801,271.614868 
	C325.348083,293.711548 333.068878,315.873932 341.093140,337.925995 
	C347.341217,355.096741 355.900574,371.039886 367.415222,385.330750 
	C377.426178,397.755432 389.777283,405.543823 406.233582,405.702332 
	C408.582001,405.724976 411.013611,403.812561 413.476685,405.881561 
	C413.421417,408.770355 410.947021,408.670441 409.254028,409.153534 
	C391.109406,414.331116 375.084656,410.169037 360.854980,398.072327 
	C349.480621,388.402863 341.223419,376.395081 334.501221,363.228851 
	C333.303314,360.882568 332.110352,359.142059 328.984955,359.107300 
	C304.961884,358.840088 285.454712,348.147400 268.373779,332.243408 
	C263.420593,327.631531 258.994080,322.453949 253.538834,316.706177 
	C248.873566,328.929901 244.532166,339.707703 240.687057,350.659760 
	C239.038330,355.355835 241.976593,359.589569 246.822540,360.842712 
	C248.230255,361.206726 249.818710,361.160095 251.483353,363.817078 
	C236.184875,364.839783 221.713226,364.258179 206.835342,364.310944 
	C207.719040,360.998535 209.455276,361.154724 210.825134,361.014526 
	C219.029755,360.174927 224.238174,355.248383 227.363861,348.191498 
	C232.757370,336.014618 237.626953,323.606659 242.898880,311.374298 
	C244.290558,308.145203 243.157440,306.149719 241.010269,303.891174 
	C230.793610,293.144653 220.684311,282.295807 210.576691,271.446198 
	C209.505447,270.296295 207.847565,269.432343 208.028275,266.824677 
	C214.272568,266.824677 220.518723,266.709778 226.756088,266.893402 
	C228.673294,266.949829 229.753677,268.872284 230.995865,270.187012 
	C237.383057,276.947144 243.736053,283.739594 250.257462,290.687408 
	C253.282272,288.304901 253.657013,284.990540 254.996201,282.266907 
	C256.389191,279.433807 257.404419,276.417572 258.666656,273.517029 
	C262.011658,265.830383 262.841431,265.449554 272.362122,267.498352 
	C268.335327,278.256775 264.344421,288.919220 260.360901,299.966797 
M281.059296,323.442169 
	C294.559601,336.249298 309.404846,346.773560 327.980194,351.748993 
	C328.093140,350.598328 328.300079,350.077942 328.160828,349.678070 
	C324.003754,337.739227 319.766235,325.828156 315.659607,313.872101 
	C314.658508,310.957428 312.732727,310.270752 309.920471,310.308350 
	C301.595825,310.419678 293.268799,310.351471 284.942688,310.352722 
	C280.024384,310.353485 275.106079,310.352844 270.187775,310.352844 
	C270.011200,310.765686 269.834625,311.178528 269.658020,311.591400 
	C273.289246,315.377075 276.920502,319.162781 281.059296,323.442169 
z"/>
<path fill="#000000" opacity="1.000000" stroke="none" 
	d="
M281.983154,243.218536 
	C278.697418,246.811234 275.089661,245.046616 270.785828,244.892151 
	C273.409241,238.427307 275.520721,232.312531 278.349640,226.549927 
	C280.497437,222.174774 279.507477,219.207169 276.341553,215.916473 
	C266.264465,205.442245 254.235092,203.087769 240.617294,206.732330 
	C238.264801,207.361923 235.972549,208.474319 233.756287,206.352631 
	C224.784241,216.737350 215.964661,226.940262 207.152496,237.149551 
	C205.259064,239.343170 202.974670,241.486496 207.317398,244.957932 
	C200.845978,245.578079 195.817566,245.451111 190.834442,245.140808 
	C190.035004,242.573730 191.884476,241.504715 192.947876,240.165665 
	C207.348862,222.031525 221.822540,203.955032 236.203308,185.804901 
	C242.282364,178.132462 241.663269,176.171371 232.628601,172.987000 
	C232.256332,172.855789 232.041794,172.277008 231.140228,171.118042 
	C247.001648,171.118042 262.155762,171.118042 277.309845,171.118042 
	C277.595276,171.786804 277.880676,172.455566 278.166077,173.124313 
	C256.179413,172.656067 248.684479,190.777786 236.778564,203.556000 
	C253.485901,198.423248 269.959076,195.766296 284.838959,207.647446 
	C296.711700,217.127472 302.637665,230.461105 307.777191,245.024750 
	C302.394135,245.546555 297.358368,246.548309 293.325256,244.741592 
	C289.221619,242.903259 289.772400,236.861649 286.808960,232.920654 
	C284.335876,236.028793 283.814880,239.723114 281.983154,243.218536 
z"/>
<path fill="#000000" opacity="1.000000" stroke="none" 
	d="
M175.909882,245.359314 
	C175.100952,245.362091 174.767746,245.364960 174.434555,245.364044 
	C166.742325,245.342911 166.728912,245.342819 166.727005,237.796082 
	C166.722977,221.802658 166.748322,205.809219 166.734451,189.815811 
	C166.725540,179.536072 163.668091,175.740067 153.726929,173.514053 
	C152.666153,173.276505 151.297195,173.611435 150.635010,171.342316 
	C166.427399,171.342316 182.003769,171.342316 197.652893,171.342316 
	C197.566971,173.467957 196.159546,173.207520 195.119644,173.440399 
	C185.028549,175.700317 182.114609,179.291138 182.093369,189.696564 
	C182.059357,206.356277 181.977249,223.016953 182.129166,239.675278 
	C182.168045,243.936905 180.818542,246.002350 175.909882,245.359314 
z"/>
<path fill="#000000" opacity="1.000000" stroke="none" 
	d="
M155.220856,319.083771 
	C163.017273,317.084869 166.616302,312.735260 166.690186,305.152985 
	C166.795639,294.329926 166.883514,283.502014 166.661041,272.682739 
	C166.571716,268.339447 167.617188,266.334106 172.454117,266.552002 
	C182.609512,267.009552 182.056824,265.259064 182.087875,276.377472 
	C182.113449,285.536163 182.032852,294.695221 182.073700,303.853790 
	C182.117569,313.690155 185.090149,317.208405 194.724625,319.095673 
	C195.954697,319.336578 197.486221,319.173584 198.009735,321.657227 
	C182.230026,321.657227 166.613678,321.657227 150.658783,321.657227 
	C151.420135,318.958344 153.545822,319.829041 155.220856,319.083771 
z"/>
<path fill="#000000" opacity="1.000000" stroke="none" 
	d="
M342.045349,250.087250 
	C343.616028,250.764008 343.847992,252.171967 344.473541,253.272583 
	C345.822266,252.411316 345.540588,250.174881 347.935425,250.237030 
	C348.702606,254.193756 346.962219,257.224609 345.309448,260.057739 
	C342.440216,259.992310 343.002960,257.774597 341.978058,256.840454 
	C341.720764,256.981689 341.368225,257.053131 341.254822,257.257385 
	C340.560333,258.508698 340.299011,260.354279 338.281799,259.956360 
	C336.664246,259.637268 336.725006,257.970245 336.370636,256.757965 
	C335.784515,254.753067 334.831238,252.755157 335.665283,250.550964 
	C338.268555,250.066437 337.709869,252.682800 338.876892,253.661362 
	C339.931946,252.512375 339.565613,250.236343 342.045349,250.087250 
z"/>
<path fill="#000000" opacity="1.000000" stroke="none" 
	d="
M147.586060,257.268280 
	C146.965988,254.760193 145.690460,252.693893 146.659805,250.376099 
	C149.069931,250.287506 148.806290,252.377472 149.776047,253.450012 
	C151.455582,252.947235 150.499039,250.011810 152.838974,250.133499 
	C154.845566,250.202072 154.600861,252.610794 155.979385,253.420029 
	C157.109512,252.694687 156.456680,250.600204 158.750687,250.552994 
	C159.671204,254.099762 158.710785,257.594940 156.179031,259.698456 
	C154.040787,261.475037 154.015244,257.627411 152.604965,256.811554 
	C151.249252,258.964203 150.202057,262.866608 147.586060,257.268280 
z"/>
<path fill="#000000" opacity="1.000000" stroke="none" 
	d="
M279.997040,256.932434 
	C281.753937,256.633362 282.039001,253.643646 284.453217,254.979004 
	C285.868713,255.761932 285.994049,257.117737 285.660553,258.430664 
	C285.017792,260.960938 282.790253,260.152985 281.120087,260.294617 
	C278.398285,260.525391 276.652588,259.077026 276.075623,256.513519 
	C275.457397,253.766663 276.557343,251.566376 279.114868,250.388641 
	C281.383667,249.343872 283.495361,249.442230 285.000397,252.346603 
	C282.688873,253.451172 277.613007,251.295975 279.997040,256.932434 
z"/>
<path fill="#000000" opacity="1.000000" stroke="none" 
	d="
M135.211639,252.580032 
	C134.992630,255.314880 136.050049,257.904724 134.162125,259.858124 
	C131.966995,259.790985 132.360718,257.378540 130.762970,256.868652 
	C128.634216,256.585938 129.348099,259.778015 126.976837,259.832275 
	C124.910583,256.657959 125.601852,253.501022 126.679352,250.270401 
	C129.218338,250.472626 128.759995,252.920578 130.708878,253.416519 
	C132.679993,255.977783 132.223328,246.912155 135.211639,252.580032 
z"/>
<path fill="#000000" opacity="1.000000" stroke="none" 
	d="
M205.563293,260.036560 
	C202.960251,257.489624 203.957443,254.585617 204.363678,252.029327 
	C204.673904,250.077118 206.825500,249.330124 208.781921,249.973816 
	C210.413773,250.510727 212.043213,251.445679 209.993866,253.493362 
	C209.824219,253.662888 210.036484,254.358032 210.229736,254.725677 
	C212.876434,259.760895 210.161865,260.560699 205.563293,260.036560 
z"/>
<path fill="#000000" opacity="1.000000" stroke="none" 
	d="
M324.663544,259.180328 
	C322.285156,262.177643 319.847778,256.091858 317.658783,260.067932 
	C316.135773,257.630493 316.803345,255.430222 316.698029,253.335297 
	C316.593811,251.261703 317.188660,249.632904 319.718231,249.856766 
	C322.079376,250.065750 324.200653,251.018341 323.863800,253.729462 
	C323.628174,255.626114 323.323120,257.278168 324.663544,259.180328 
z"/>
<path fill="#000000" opacity="1.000000" stroke="none" 
	d="
M106.872238,252.735382 
	C107.052597,251.528275 107.695503,250.173615 108.122398,250.537964 
	C110.363106,252.450363 112.225182,250.469315 114.936325,249.822723 
	C113.496040,253.456696 111.098282,256.808777 115.591522,259.305206 
	C112.785919,261.631165 110.206825,257.453491 108.050743,260.171936 
	C106.193375,257.758514 107.009987,255.362000 106.872238,252.735382 
z"/>
<path fill="#000000" opacity="1.000000" stroke="none" 
	d="
M172.995758,251.098648 
	C174.732773,249.507614 175.674393,250.395447 176.281296,251.751877 
	C177.406693,254.267090 178.402069,256.840454 179.886200,260.445160 
	C176.068558,258.895203 173.218491,257.900421 170.169174,260.310699 
	C169.795212,256.499817 171.639328,254.049133 172.995758,251.098648 
z"/>
<path fill="#000000" opacity="1.000000" stroke="none" 
	d="
M225.834427,252.917236 
	C229.112381,254.677200 228.192215,250.193497 230.672302,250.354660 
	C232.480667,253.451126 231.365295,256.655365 230.982178,259.803741 
	C228.083176,260.238647 229.374939,256.858215 228.280228,256.811462 
	C225.166946,256.440338 225.772491,259.428772 223.656464,259.815369 
	C221.926086,256.818451 222.575241,253.736191 223.183960,250.682556 
	C225.255798,250.173538 225.052979,251.826797 225.834427,252.917236 
z"/>
<path fill="#000000" opacity="1.000000" stroke="none" 
	d="
M264.476318,259.902252 
	C261.738617,257.577667 259.124481,258.908661 256.053223,260.162323 
	C256.798401,255.956085 257.625732,252.586716 260.761108,249.633118 
	C263.309082,252.782486 265.248993,255.784821 264.476318,259.902252 
z"/>
<path fill="#000000" opacity="1.000000" stroke="none" 
	d="
M366.425354,259.769104 
	C363.758759,257.115326 361.572205,259.640869 358.876953,260.180847 
	C359.219788,255.956085 360.707825,252.766495 363.875549,249.131500 
	C365.361603,253.144318 368.955078,255.554825 366.425354,259.769104 
z"/>
<path fill="#000000" opacity="1.000000" stroke="none" 
	d="
M302.668213,251.542725 
	C303.707916,254.432190 305.597961,256.733124 305.318359,260.200806 
	C302.285126,258.874786 299.545349,257.305511 296.534760,261.217377 
	C296.392395,256.400055 298.271729,253.807388 299.688690,251.120956 
	C300.412872,249.747971 301.579590,250.073242 302.668213,251.542725 
z"/>
<path fill="#000000" opacity="1.000000" stroke="none" 
	d="
M381.922607,253.285172 
	C381.471680,256.409058 383.505127,257.677551 385.926910,259.254730 
	C383.365234,260.599396 380.912689,261.128143 379.684204,259.372040 
	C377.836700,256.731140 378.706940,253.535477 379.366669,250.626114 
	C381.622650,250.510513 381.529480,251.896133 381.922607,253.285172 
z"/>
<path fill="#000000" opacity="1.000000" stroke="none" 
	d="
M193.017151,255.879791 
	C192.767960,257.647491 193.303528,259.414276 191.183517,259.776642 
	C189.215805,255.964462 189.226196,254.031036 191.306152,250.242325 
	C193.537262,251.478394 192.815933,253.633606 193.017151,255.879791 
z"/>
</svg>